<svg xmlns="http://www.w3.org/2000/svg" xmlns:xlink="http://www.w3.org/1999/xlink" width="500" zoomAndPan="magnify" viewBox="0 0 375 374.999991" height="500" preserveAspectRatio="xMidYMid meet" version="1.0"><defs><clipPath id="7d3b3aecf3"><path d="M 66 194 L 309 194 L 309 364.605469 L 66 364.605469 Z M 66 194 " clip-rule="nonzero"/></clipPath><clipPath id="5e6e16dd11"><path d="M 148 10.605469 L 227 10.605469 L 227 183 L 148 183 Z M 148 10.605469 " clip-rule="nonzero"/></clipPath><clipPath id="5fcf83083a"><path d="M 236 10.605469 L 342.585938 10.605469 L 342.585938 183 L 236 183 Z M 236 10.605469 " clip-rule="nonzero"/></clipPath><clipPath id="d47b926f8f"><path d="M 32.085938 10.605469 L 142 10.605469 L 142 183 L 32.085938 183 Z M 32.085938 10.605469 " clip-rule="nonzero"/></clipPath></defs><g clip-path="url(#7d3b3aecf3)"><path fill="#a1ff2a" d="M 294.070312 233.882812 L 294.070312 222.535156 L 294.394531 222.535156 C 302.238281 222.535156 308.621094 216.152344 308.621094 208.308594 C 308.621094 200.464844 302.238281 194.082031 294.394531 194.082031 L 80.605469 194.082031 C 72.761719 194.082031 66.378906 200.464844 66.378906 208.308594 C 66.378906 216.152344 72.761719 222.535156 80.605469 222.535156 L 80.929688 222.535156 L 80.929688 233.882812 C 80.929688 235.058594 81.460938 236.167969 82.378906 236.898438 L 167.53125 304.984375 L 167.53125 360.503906 C 167.53125 361.84375 168.226562 363.085938 169.367188 363.789062 C 169.988281 364.171875 170.6875 364.363281 171.394531 364.363281 C 171.984375 364.363281 172.582031 364.226562 173.125 363.953125 L 205.21875 347.816406 C 206.523438 347.160156 207.34375 345.824219 207.34375 344.367188 L 207.34375 305.011719 L 234.957031 282.933594 L 235.605469 283.515625 L 235.058594 288.164062 L 227.972656 292.019531 C 226.53125 292.804688 225.824219 294.480469 226.273438 296.058594 L 228.980469 305.613281 C 229.425781 307.191406 230.90625 308.25 232.546875 308.160156 L 240.601562 307.726562 L 243.503906 311.402344 L 241.21875 319.136719 C 240.753906 320.710938 241.441406 322.394531 242.875 323.195312 L 251.546875 328.039062 C 252.976562 328.835938 254.773438 328.539062 255.867188 327.320312 L 261.257812 321.316406 L 265.90625 321.859375 L 269.761719 328.945312 C 270.386719 330.097656 271.582031 330.78125 272.84375 330.78125 C 273.160156 330.78125 273.484375 330.738281 273.800781 330.648438 L 283.355469 327.941406 C 284.933594 327.492188 285.992188 326.011719 285.902344 324.375 L 285.46875 316.316406 L 289.140625 313.414062 L 296.878906 315.699219 C 298.453125 316.164062 300.136719 315.476562 300.9375 314.046875 L 305.777344 305.375 C 306.578125 303.945312 306.28125 302.148438 305.058594 301.054688 L 299.054688 295.664062 L 299.601562 291.015625 L 306.6875 287.160156 C 308.128906 286.375 308.835938 284.699219 308.386719 283.121094 L 305.679688 273.5625 C 305.234375 271.984375 303.753906 270.925781 302.117188 271.015625 L 294.058594 271.449219 L 291.15625 267.777344 L 293.441406 260.039062 C 293.90625 258.46875 293.21875 256.78125 291.789062 255.984375 L 283.117188 251.140625 C 281.683594 250.339844 279.886719 250.640625 278.792969 251.859375 L 273.402344 257.863281 L 268.753906 257.320312 L 268.222656 256.335938 L 292.078125 237.261719 C 293.269531 236.601562 294.070312 235.335938 294.070312 233.882812 Z M 74.097656 208.308594 C 74.097656 204.71875 77.015625 201.800781 80.605469 201.800781 L 294.394531 201.800781 C 297.980469 201.800781 300.902344 204.71875 300.902344 208.308594 C 300.902344 211.898438 297.980469 214.816406 294.394531 214.816406 L 80.605469 214.816406 C 77.015625 214.816406 74.097656 211.898438 74.097656 208.308594 Z M 274.394531 265.046875 C 275.527344 265.179688 276.65625 264.753906 277.414062 263.90625 L 282.144531 258.636719 L 285.917969 260.742188 L 283.914062 267.535156 C 283.589844 268.625 283.816406 269.808594 284.523438 270.703125 L 289.683594 277.230469 C 290.390625 278.125 291.484375 278.621094 292.625 278.558594 L 299.695312 278.175781 L 300.875 282.332031 L 294.652344 285.71875 C 293.652344 286.261719 292.976562 287.257812 292.84375 288.390625 L 291.875 296.652344 C 291.742188 297.785156 292.167969 298.910156 293.015625 299.671875 L 298.289062 304.402344 L 296.179688 308.175781 L 289.390625 306.167969 C 288.296875 305.84375 287.113281 306.074219 286.21875 306.78125 L 279.695312 311.9375 C 278.800781 312.644531 278.304688 313.742188 278.367188 314.878906 L 278.746094 321.949219 L 274.589844 323.128906 L 271.207031 316.90625 C 270.660156 315.90625 269.664062 315.230469 268.53125 315.097656 L 260.269531 314.132812 C 260.132812 314.113281 260 314.105469 259.863281 314.105469 C 258.871094 314.105469 257.921875 314.527344 257.25 315.273438 L 252.523438 320.542969 L 248.75 318.433594 L 250.753906 311.644531 C 251.078125 310.550781 250.847656 309.371094 250.140625 308.476562 L 244.984375 301.949219 C 244.277344 301.054688 243.183594 300.558594 242.042969 300.621094 L 234.972656 301.003906 L 233.792969 296.84375 L 240.015625 293.460938 C 241.015625 292.914062 241.691406 291.917969 241.824219 290.785156 L 242.789062 282.523438 C 242.921875 281.390625 242.496094 280.265625 241.648438 279.503906 L 236.378906 274.777344 L 238.488281 271.003906 L 245.277344 273.007812 C 246.371094 273.332031 247.550781 273.101562 248.445312 272.394531 L 254.972656 267.238281 C 255.867188 266.53125 256.363281 265.433594 256.300781 264.296875 L 255.917969 257.226562 L 260.078125 256.046875 L 263.460938 262.269531 C 264.007812 263.269531 265.003906 263.945312 266.136719 264.078125 Z M 286.351562 231.960938 L 264.390625 249.519531 C 263.507812 248.574219 262.152344 248.167969 260.863281 248.535156 L 251.308594 251.242188 C 249.730469 251.6875 248.671875 253.167969 248.757812 254.804688 L 249.195312 262.863281 L 245.519531 265.765625 L 237.785156 263.480469 C 236.210938 263.015625 234.523438 263.703125 233.726562 265.132812 L 228.882812 273.804688 C 228.1875 275.054688 228.324219 276.578125 229.179688 277.671875 L 201.078125 300.144531 C 200.160156 300.875 199.628906 301.984375 199.628906 303.15625 L 199.628906 341.988281 L 175.253906 354.246094 L 175.253906 303.128906 C 175.253906 301.957031 174.722656 300.847656 173.804688 300.117188 L 88.648438 232.027344 L 88.648438 222.535156 L 286.351562 222.535156 Z M 286.351562 231.960938 " fill-opacity="1" fill-rule="nonzero"/></g><path fill="#a1ff2a" d="M 49.265625 47.816406 L 92.933594 47.816406 L 92.933594 55.539062 L 49.265625 55.539062 Z M 49.265625 47.816406 " fill-opacity="1" fill-rule="nonzero"/><path fill="#a1ff2a" d="M 49.265625 64.929688 L 92.933594 64.929688 L 92.933594 72.652344 L 49.265625 72.652344 Z M 49.265625 64.929688 " fill-opacity="1" fill-rule="nonzero"/><path fill="#a1ff2a" d="M 63.5625 82.042969 L 92.933594 82.042969 L 92.933594 89.765625 L 63.5625 89.765625 Z M 63.5625 82.042969 " fill-opacity="1" fill-rule="nonzero"/><path fill="#a1ff2a" d="M 49.265625 82.042969 L 56.925781 82.042969 L 56.925781 89.765625 L 49.265625 89.765625 Z M 49.265625 82.042969 " fill-opacity="1" fill-rule="nonzero"/><path fill="#a1ff2a" d="M 49.265625 32 L 73.003906 32 L 73.003906 39.71875 L 49.265625 39.71875 Z M 49.265625 32 " fill-opacity="1" fill-rule="nonzero"/><g clip-path="url(#5e6e16dd11)"><path fill="#a1ff2a" d="M 152.289062 109.046875 L 185.484375 109.046875 L 185.484375 155.101562 L 177.535156 155.101562 C 174.867188 155.101562 173.199219 157.992188 174.535156 160.300781 L 186.34375 180.753906 C 187.675781 183.0625 191.011719 183.0625 192.34375 180.753906 L 204.152344 160.300781 C 205.488281 157.992188 203.820312 155.101562 201.152344 155.101562 L 193.203125 155.101562 L 193.203125 109.046875 L 222.710938 109.046875 C 224.839844 109.046875 226.570312 107.316406 226.570312 105.183594 L 226.570312 35.859375 C 226.570312 35.796875 226.566406 35.738281 226.566406 35.675781 C 226.566406 35.675781 226.566406 35.671875 226.566406 35.667969 C 226.5625 35.585938 226.554688 35.503906 226.542969 35.421875 C 226.539062 35.398438 226.539062 35.378906 226.535156 35.355469 C 226.523438 35.277344 226.511719 35.199219 226.5 35.125 C 226.496094 35.121094 226.496094 35.113281 226.496094 35.109375 C 226.480469 35.027344 226.460938 34.945312 226.4375 34.867188 C 226.433594 34.847656 226.425781 34.824219 226.421875 34.804688 C 226.402344 34.734375 226.378906 34.664062 226.355469 34.589844 C 226.351562 34.582031 226.347656 34.574219 226.347656 34.5625 C 226.320312 34.488281 226.289062 34.410156 226.253906 34.335938 C 226.246094 34.316406 226.238281 34.292969 226.226562 34.273438 C 226.199219 34.207031 226.167969 34.140625 226.132812 34.078125 C 226.128906 34.066406 226.121094 34.054688 226.117188 34.046875 C 226.078125 33.972656 226.039062 33.902344 225.996094 33.835938 C 225.984375 33.816406 225.96875 33.792969 225.957031 33.773438 C 225.917969 33.710938 225.875 33.648438 225.828125 33.585938 C 225.824219 33.578125 225.820312 33.574219 225.8125 33.566406 C 225.765625 33.496094 225.710938 33.433594 225.65625 33.367188 C 225.644531 33.351562 225.628906 33.335938 225.613281 33.320312 C 225.558594 33.253906 225.5 33.191406 225.441406 33.128906 L 204.066406 11.757812 C 204.007812 11.695312 203.941406 11.636719 203.878906 11.582031 C 203.863281 11.566406 203.84375 11.554688 203.828125 11.539062 C 203.765625 11.484375 203.699219 11.433594 203.632812 11.382812 C 203.625 11.378906 203.617188 11.375 203.613281 11.367188 C 203.550781 11.324219 203.488281 11.28125 203.421875 11.238281 C 203.402344 11.226562 203.382812 11.214844 203.363281 11.203125 C 203.292969 11.160156 203.222656 11.117188 203.152344 11.082031 C 203.140625 11.074219 203.132812 11.070312 203.125 11.066406 C 203.058594 11.03125 202.992188 11 202.925781 10.96875 C 202.90625 10.960938 202.882812 10.949219 202.863281 10.941406 C 202.785156 10.910156 202.710938 10.878906 202.636719 10.851562 C 202.628906 10.847656 202.621094 10.847656 202.613281 10.84375 C 202.542969 10.820312 202.46875 10.796875 202.394531 10.777344 C 202.375 10.769531 202.355469 10.765625 202.332031 10.757812 C 202.253906 10.738281 202.171875 10.71875 202.089844 10.703125 C 202.089844 10.703125 202.085938 10.703125 202.082031 10.703125 C 202.003906 10.6875 201.925781 10.671875 201.847656 10.664062 C 201.824219 10.660156 201.800781 10.65625 201.78125 10.65625 C 201.703125 10.648438 201.628906 10.640625 201.550781 10.636719 C 201.542969 10.636719 201.535156 10.632812 201.53125 10.632812 C 201.464844 10.628906 201.402344 10.628906 201.339844 10.628906 L 152.292969 10.628906 C 150.160156 10.628906 148.429688 12.355469 148.429688 14.488281 L 148.429688 105.1875 C 148.429688 107.316406 150.15625 109.046875 152.289062 109.046875 Z M 213.339844 31.949219 L 205.199219 31.90625 L 205.199219 23.808594 Z M 156.152344 18.347656 L 197.476562 18.347656 L 197.476562 35.746094 C 197.476562 37.871094 199.191406 39.59375 201.316406 39.605469 L 218.847656 39.699219 L 218.847656 101.324219 L 156.152344 101.324219 Z M 156.152344 18.347656 " fill-opacity="1" fill-rule="nonzero"/></g><path fill="#a1ff2a" d="M 179.957031 47.816406 L 209.273438 47.816406 L 209.273438 55.539062 L 179.957031 55.539062 Z M 179.957031 47.816406 " fill-opacity="1" fill-rule="nonzero"/><path fill="#a1ff2a" d="M 165.605469 47.816406 L 173.320312 47.816406 L 173.320312 55.539062 L 165.605469 55.539062 Z M 165.605469 47.816406 " fill-opacity="1" fill-rule="nonzero"/><path fill="#a1ff2a" d="M 165.605469 64.929688 L 209.273438 64.929688 L 209.273438 72.652344 L 165.605469 72.652344 Z M 165.605469 64.929688 " fill-opacity="1" fill-rule="nonzero"/><path fill="#a1ff2a" d="M 165.605469 82.042969 L 209.273438 82.042969 L 209.273438 89.765625 L 165.605469 89.765625 Z M 165.605469 82.042969 " fill-opacity="1" fill-rule="nonzero"/><path fill="#a1ff2a" d="M 165.605469 32 L 189.34375 32 L 189.34375 39.71875 L 165.605469 39.71875 Z M 165.605469 32 " fill-opacity="1" fill-rule="nonzero"/><g clip-path="url(#5fcf83083a)"><path fill="#a1ff2a" d="M 342.90625 35.675781 C 342.90625 35.671875 342.90625 35.671875 342.90625 35.667969 C 342.902344 35.585938 342.894531 35.503906 342.882812 35.417969 C 342.882812 35.398438 342.878906 35.375 342.875 35.355469 C 342.867188 35.277344 342.855469 35.199219 342.839844 35.125 C 342.835938 35.117188 342.835938 35.113281 342.835938 35.109375 C 342.820312 35.027344 342.800781 34.945312 342.777344 34.867188 C 342.773438 34.84375 342.769531 34.824219 342.761719 34.804688 C 342.742188 34.734375 342.71875 34.660156 342.695312 34.589844 C 342.691406 34.582031 342.691406 34.570312 342.6875 34.5625 C 342.660156 34.484375 342.628906 34.410156 342.597656 34.335938 C 342.585938 34.316406 342.578125 34.292969 342.566406 34.273438 C 342.539062 34.207031 342.507812 34.140625 342.472656 34.078125 C 342.46875 34.066406 342.464844 34.054688 342.457031 34.042969 C 342.417969 33.972656 342.378906 33.902344 342.335938 33.832031 C 342.324219 33.8125 342.3125 33.792969 342.296875 33.773438 C 342.257812 33.710938 342.214844 33.648438 342.171875 33.585938 C 342.164062 33.578125 342.160156 33.570312 342.15625 33.5625 C 342.105469 33.496094 342.054688 33.429688 341.996094 33.367188 C 341.984375 33.351562 341.96875 33.335938 341.957031 33.320312 C 341.898438 33.253906 341.839844 33.191406 341.78125 33.128906 L 320.40625 11.757812 C 320.347656 11.695312 320.285156 11.636719 320.21875 11.582031 C 320.203125 11.566406 320.1875 11.550781 320.167969 11.539062 C 320.105469 11.484375 320.039062 11.429688 319.972656 11.382812 C 319.964844 11.378906 319.957031 11.371094 319.953125 11.367188 C 319.890625 11.324219 319.828125 11.28125 319.765625 11.238281 C 319.742188 11.226562 319.722656 11.214844 319.703125 11.203125 C 319.632812 11.160156 319.566406 11.117188 319.492188 11.082031 C 319.484375 11.074219 319.472656 11.070312 319.460938 11.066406 C 319.398438 11.03125 319.332031 11 319.265625 10.96875 C 319.246094 10.960938 319.222656 10.949219 319.203125 10.941406 C 319.128906 10.910156 319.050781 10.878906 318.976562 10.851562 C 318.96875 10.847656 318.960938 10.847656 318.953125 10.84375 C 318.882812 10.820312 318.808594 10.796875 318.738281 10.777344 C 318.714844 10.769531 318.695312 10.765625 318.675781 10.757812 C 318.59375 10.738281 318.515625 10.71875 318.433594 10.703125 C 318.429688 10.699219 318.425781 10.699219 318.425781 10.699219 C 318.347656 10.683594 318.265625 10.671875 318.1875 10.660156 C 318.164062 10.660156 318.144531 10.65625 318.121094 10.652344 C 318.046875 10.644531 317.96875 10.636719 317.890625 10.632812 C 317.886719 10.632812 317.878906 10.632812 317.871094 10.632812 C 317.808594 10.628906 317.742188 10.625 317.679688 10.625 L 268.628906 10.625 C 266.496094 10.625 264.769531 12.355469 264.769531 14.488281 L 264.769531 105.183594 C 264.769531 107.316406 266.496094 109.042969 268.628906 109.042969 L 303.726562 109.042969 L 303.726562 117.511719 C 303.726562 123.332031 298.992188 128.070312 293.167969 128.070312 L 266.472656 128.070312 C 256.394531 128.070312 248.195312 136.269531 248.195312 146.351562 L 248.195312 155.101562 L 240.246094 155.101562 C 237.578125 155.101562 235.910156 157.988281 237.246094 160.300781 L 249.050781 180.75 C 250.386719 183.0625 253.71875 183.0625 255.054688 180.75 L 266.863281 160.300781 C 268.195312 157.988281 266.527344 155.101562 263.859375 155.101562 L 255.914062 155.101562 L 255.914062 146.351562 C 255.914062 140.527344 260.648438 135.789062 266.472656 135.789062 L 293.167969 135.789062 C 303.25 135.789062 311.449219 127.589844 311.449219 117.511719 L 311.449219 109.042969 L 339.050781 109.042969 C 341.179688 109.042969 342.910156 107.316406 342.910156 105.183594 L 342.910156 35.859375 C 342.910156 35.796875 342.90625 35.738281 342.90625 35.675781 Z M 329.679688 31.949219 L 321.539062 31.90625 L 321.539062 23.808594 Z M 272.488281 101.324219 L 272.488281 18.347656 L 313.816406 18.347656 L 313.816406 35.746094 C 313.816406 37.871094 315.53125 39.59375 317.65625 39.605469 L 335.1875 39.699219 L 335.1875 101.324219 Z M 272.488281 101.324219 " fill-opacity="1" fill-rule="nonzero"/></g><path fill="#a1ff2a" d="M 281.945312 47.816406 L 325.613281 47.816406 L 325.613281 55.539062 L 281.945312 55.539062 Z M 281.945312 47.816406 " fill-opacity="1" fill-rule="nonzero"/><path fill="#a1ff2a" d="M 317.675781 64.929688 L 325.613281 64.929688 L 325.613281 72.652344 L 317.675781 72.652344 Z M 317.675781 64.929688 " fill-opacity="1" fill-rule="nonzero"/><path fill="#a1ff2a" d="M 281.945312 64.929688 L 312.066406 64.929688 L 312.066406 72.652344 L 281.945312 72.652344 Z M 281.945312 64.929688 " fill-opacity="1" fill-rule="nonzero"/><path fill="#a1ff2a" d="M 281.945312 82.042969 L 325.613281 82.042969 L 325.613281 89.765625 L 281.945312 89.765625 Z M 281.945312 82.042969 " fill-opacity="1" fill-rule="nonzero"/><path fill="#a1ff2a" d="M 281.945312 32 L 305.683594 32 L 305.683594 39.71875 L 281.945312 39.71875 Z M 281.945312 32 " fill-opacity="1" fill-rule="nonzero"/><g clip-path="url(#d47b926f8f)"><path fill="#a1ff2a" d="M 67.238281 117.511719 C 67.238281 127.589844 75.4375 135.792969 85.519531 135.792969 L 112.214844 135.792969 C 118.039062 135.792969 122.773438 140.527344 122.773438 146.351562 L 122.773438 155.101562 L 114.828125 155.101562 C 112.160156 155.101562 110.492188 157.992188 111.824219 160.300781 L 123.632812 180.753906 C 124.964844 183.0625 128.300781 183.0625 129.636719 180.753906 L 141.441406 160.300781 C 142.777344 157.992188 141.109375 155.101562 138.441406 155.101562 L 130.492188 155.101562 L 130.492188 146.351562 C 130.492188 136.273438 122.292969 128.070312 112.214844 128.070312 L 85.519531 128.070312 C 79.695312 128.070312 74.960938 123.335938 74.960938 117.511719 L 74.960938 109.046875 L 106.371094 109.046875 C 108.5 109.046875 110.230469 107.316406 110.230469 105.183594 L 110.230469 35.859375 C 110.230469 35.800781 110.226562 35.738281 110.226562 35.679688 C 110.226562 35.675781 110.226562 35.671875 110.226562 35.667969 C 110.222656 35.585938 110.214844 35.503906 110.203125 35.421875 C 110.199219 35.398438 110.199219 35.378906 110.195312 35.355469 C 110.183594 35.28125 110.171875 35.203125 110.160156 35.125 C 110.160156 35.121094 110.15625 35.113281 110.15625 35.109375 C 110.140625 35.027344 110.121094 34.949219 110.101562 34.867188 C 110.09375 34.847656 110.089844 34.828125 110.082031 34.804688 C 110.0625 34.734375 110.039062 34.664062 110.015625 34.59375 C 110.011719 34.582031 110.007812 34.574219 110.007812 34.5625 C 109.980469 34.488281 109.949219 34.410156 109.917969 34.335938 C 109.90625 34.316406 109.898438 34.292969 109.890625 34.273438 C 109.859375 34.207031 109.828125 34.144531 109.796875 34.078125 C 109.789062 34.066406 109.785156 34.054688 109.777344 34.046875 C 109.742188 33.972656 109.699219 33.902344 109.65625 33.835938 C 109.644531 33.816406 109.632812 33.792969 109.617188 33.773438 C 109.578125 33.710938 109.535156 33.648438 109.492188 33.589844 C 109.484375 33.582031 109.480469 33.574219 109.476562 33.566406 C 109.425781 33.5 109.375 33.433594 109.320312 33.371094 C 109.304688 33.351562 109.292969 33.335938 109.277344 33.320312 C 109.21875 33.257812 109.164062 33.191406 109.101562 33.132812 L 87.726562 11.757812 C 87.664062 11.699219 87.601562 11.640625 87.539062 11.582031 C 87.519531 11.570312 87.503906 11.554688 87.488281 11.539062 C 87.421875 11.488281 87.359375 11.433594 87.292969 11.382812 C 87.285156 11.378906 87.277344 11.375 87.273438 11.367188 C 87.210938 11.324219 87.148438 11.28125 87.082031 11.238281 C 87.0625 11.226562 87.042969 11.214844 87.023438 11.203125 C 86.953125 11.160156 86.882812 11.117188 86.8125 11.082031 C 86.800781 11.074219 86.792969 11.070312 86.785156 11.066406 C 86.71875 11.03125 86.652344 11 86.585938 10.96875 C 86.566406 10.960938 86.542969 10.949219 86.523438 10.941406 C 86.449219 10.910156 86.371094 10.878906 86.296875 10.851562 C 86.289062 10.851562 86.28125 10.847656 86.273438 10.84375 C 86.203125 10.820312 86.128906 10.796875 86.054688 10.777344 C 86.035156 10.769531 86.015625 10.765625 85.996094 10.757812 C 85.914062 10.738281 85.832031 10.71875 85.75 10.703125 C 85.75 10.703125 85.75 10.699219 85.746094 10.699219 C 85.667969 10.683594 85.585938 10.671875 85.503906 10.664062 C 85.484375 10.660156 85.464844 10.65625 85.441406 10.65625 C 85.363281 10.644531 85.285156 10.636719 85.207031 10.632812 C 85.203125 10.632812 85.195312 10.632812 85.191406 10.632812 C 85.128906 10.628906 85.0625 10.628906 85 10.628906 L 35.949219 10.628906 C 33.816406 10.628906 32.089844 12.355469 32.089844 14.488281 L 32.089844 105.1875 C 32.089844 107.316406 33.816406 109.046875 35.949219 109.046875 L 67.238281 109.046875 Z M 97 31.949219 L 88.855469 31.90625 L 88.855469 23.808594 Z M 39.808594 18.347656 L 81.136719 18.347656 L 81.136719 35.746094 C 81.136719 37.871094 82.851562 39.59375 84.976562 39.605469 L 102.507812 39.699219 L 102.507812 101.324219 L 39.808594 101.324219 Z M 39.808594 18.347656 " fill-opacity="1" fill-rule="nonzero"/></g><path fill="#a1ff2a" d="M 251.539062 280.769531 C 249.179688 284.988281 248.609375 289.871094 249.925781 294.519531 C 252.179688 302.476562 259.449219 307.683594 267.339844 307.683594 C 268.96875 307.683594 270.621094 307.460938 272.265625 306.996094 C 281.859375 304.277344 287.457031 294.257812 284.738281 284.660156 C 283.421875 280.011719 280.371094 276.152344 276.152344 273.796875 C 271.933594 271.441406 267.050781 270.867188 262.402344 272.183594 C 257.753906 273.5 253.894531 276.550781 251.539062 280.769531 Z M 267.347656 278.511719 C 269.214844 278.511719 271.058594 278.988281 272.730469 279.925781 C 275.3125 281.367188 277.179688 283.726562 277.988281 286.574219 C 279.648438 292.449219 276.226562 298.582031 270.351562 300.246094 C 267.503906 301.050781 264.515625 300.699219 261.933594 299.257812 C 259.351562 297.816406 257.484375 295.453125 256.679688 292.609375 C 255.875 289.761719 256.222656 286.773438 257.664062 284.191406 C 259.109375 281.609375 261.46875 279.742188 264.316406 278.9375 C 265.316406 278.652344 266.335938 278.511719 267.347656 278.511719 Z M 267.347656 278.511719 " fill-opacity="1" fill-rule="nonzero"/></svg>