<svg xmlns="http://www.w3.org/2000/svg" xmlns:xlink="http://www.w3.org/1999/xlink" width="500" zoomAndPan="magnify" viewBox="0 0 375 374.999991" height="500" preserveAspectRatio="xMidYMid meet" version="1.0"><path fill="#a1ff2a" d="M 308.394531 94.023438 L 274.292969 94.023438 C 273.9375 94.023438 273.644531 94.316406 273.644531 94.675781 L 273.644531 123.542969 C 273.644531 124.035156 273.121094 124.351562 272.683594 124.117188 C 269.921875 122.640625 267.101562 121.230469 264.234375 119.898438 C 264 119.789062 263.859375 119.566406 263.859375 119.304688 L 263.859375 89.132812 C 263.859375 86.429688 266.046875 84.238281 268.75 84.238281 L 308.394531 84.238281 C 308.683594 84.238281 308.929688 84.058594 309.015625 83.78125 C 312.960938 71.167969 329.089844 66.992188 338.625 76.527344 C 349.828125 87.730469 341.847656 106.953125 326.023438 106.953125 C 318.128906 106.953125 311.308594 101.789062 309.015625 94.480469 C 308.929688 94.203125 308.683594 94.023438 308.394531 94.023438 Z M 187.800781 168.605469 C 198.070312 168.605469 206.394531 176.929688 206.394531 187.195312 C 206.394531 197.464844 198.070312 205.785156 187.800781 205.785156 C 177.535156 205.785156 169.210938 197.464844 169.210938 187.195312 C 169.210938 176.929688 177.535156 168.605469 187.800781 168.605469 Z M 197.796875 125.292969 C 197.398438 125.230469 197.039062 125.535156 197.039062 125.9375 L 197.039062 146.972656 C 197.039062 147.277344 197.242188 147.535156 197.535156 147.605469 C 212.226562 151.207031 223.789062 162.769531 227.390625 177.460938 C 227.460938 177.757812 227.71875 177.960938 228.023438 177.960938 L 249.058594 177.960938 C 249.460938 177.960938 249.765625 177.601562 249.703125 177.203125 C 245.441406 150.582031 224.417969 129.558594 197.796875 125.292969 Z M 228.023438 196.433594 C 227.722656 196.433594 227.464844 196.636719 227.390625 196.929688 C 223.027344 214.742188 206.957031 227.957031 187.800781 227.957031 C 165.292969 227.957031 147.042969 209.707031 147.042969 187.195312 C 147.042969 168.039062 160.257812 151.96875 178.070312 147.605469 C 178.363281 147.535156 178.566406 147.277344 178.566406 146.972656 L 178.566406 125.9375 C 178.566406 125.535156 178.207031 125.230469 177.808594 125.292969 C 147.933594 130.078125 125.105469 155.96875 125.105469 187.195312 C 125.105469 221.824219 153.175781 249.894531 187.800781 249.894531 C 219.027344 249.894531 244.917969 227.066406 249.703125 197.1875 C 249.769531 196.789062 249.464844 196.433594 249.0625 196.433594 Z M 187.464844 112.988281 C 157.027344 112.988281 128.675781 120.632812 104.824219 133.828125 C 81.234375 146.882812 62.050781 165.355469 49.625 187.210938 C 49.507812 187.417969 49.507812 187.652344 49.625 187.855469 C 62.050781 209.710938 81.234375 228.1875 104.824219 241.238281 C 155.085938 269.042969 219.84375 269.042969 270.101562 241.238281 C 293.695312 228.1875 312.875 209.710938 325.300781 187.855469 C 325.417969 187.652344 325.417969 187.417969 325.300781 187.210938 C 312.875 165.355469 293.695312 146.882812 270.101562 133.828125 C 246.25 120.632812 217.898438 112.988281 187.464844 112.988281 Z M 48.902344 71.304688 C 56.796875 71.304688 63.617188 76.472656 65.910156 83.78125 C 65.996094 84.058594 66.242188 84.238281 66.535156 84.238281 L 106.175781 84.238281 C 108.875 84.238281 111.066406 86.429688 111.066406 89.128906 L 111.066406 119.304688 C 111.066406 119.566406 110.925781 119.789062 110.691406 119.898438 C 107.824219 121.230469 105.003906 122.640625 102.242188 124.117188 C 101.808594 124.351562 101.28125 124.035156 101.28125 123.542969 L 101.28125 94.675781 C 101.28125 94.316406 100.988281 94.023438 100.632812 94.023438 L 66.53125 94.023438 C 66.242188 94.023438 65.996094 94.203125 65.910156 94.480469 C 61.964844 107.09375 45.835938 111.269531 36.300781 101.734375 C 25.097656 90.53125 33.078125 71.304688 48.902344 71.304688 Z M 91.914062 26.101562 C 76.089844 26.101562 68.105469 45.324219 79.308594 56.527344 C 88.84375 66.0625 104.972656 61.886719 108.921875 49.273438 C 109.007812 48.996094 109.253906 48.816406 109.542969 48.816406 L 159.75 48.816406 C 160.109375 48.816406 160.402344 49.109375 160.402344 49.46875 L 160.402344 104.398438 C 160.402344 104.796875 160.75 105.101562 161.144531 105.042969 C 163.9375 104.648438 166.757812 104.316406 169.59375 104.046875 C 169.929688 104.015625 170.1875 103.734375 170.1875 103.398438 L 170.1875 43.921875 C 170.1875 41.222656 167.996094 39.03125 165.292969 39.03125 L 109.542969 39.03125 C 109.253906 39.03125 109.007812 38.851562 108.921875 38.574219 C 106.625 31.265625 99.808594 26.101562 91.914062 26.101562 Z M 270.410156 31.320312 C 268.40625 33.324219 266.875 35.804688 266.003906 38.574219 C 265.917969 38.851562 265.671875 39.03125 265.382812 39.03125 L 209.632812 39.03125 C 206.929688 39.03125 204.738281 41.222656 204.738281 43.921875 L 204.738281 103.398438 C 204.738281 103.734375 204.996094 104.015625 205.332031 104.046875 C 208.167969 104.316406 210.988281 104.652344 213.78125 105.046875 C 214.175781 105.101562 214.523438 104.800781 214.523438 104.398438 L 214.523438 49.46875 C 214.523438 49.109375 214.816406 48.816406 215.175781 48.816406 L 265.382812 48.816406 C 265.671875 48.816406 265.917969 48.996094 266.003906 49.273438 C 266.875 52.042969 268.40625 54.523438 270.410156 56.527344 C 281.613281 67.730469 300.835938 59.75 300.835938 43.921875 C 300.835938 28.101562 281.613281 20.117188 270.410156 31.320312 Z M 104.515625 343.75 C 93.3125 354.953125 74.089844 346.972656 74.089844 331.148438 C 74.089844 315.320312 93.3125 307.339844 104.515625 318.542969 C 106.519531 320.546875 108.050781 323.027344 108.921875 325.796875 C 109.007812 326.074219 109.253906 326.253906 109.542969 326.253906 L 159.75 326.253906 C 160.109375 326.253906 160.402344 325.960938 160.402344 325.601562 L 160.402344 270.671875 C 160.402344 270.273438 160.75 269.96875 161.144531 270.027344 C 163.9375 270.421875 166.757812 270.753906 169.59375 271.023438 C 169.929688 271.054688 170.1875 271.335938 170.1875 271.671875 L 170.1875 331.148438 C 170.1875 333.847656 167.996094 336.039062 165.292969 336.039062 L 109.542969 336.039062 C 109.253906 336.039062 109.007812 336.21875 108.921875 336.496094 C 108.050781 339.265625 106.519531 341.746094 104.515625 343.75 Z M 326.023438 303.765625 C 318.128906 303.765625 311.3125 298.597656 309.015625 291.289062 C 308.929688 291.011719 308.683594 290.832031 308.394531 290.832031 L 268.75 290.832031 C 266.050781 290.832031 263.859375 288.640625 263.859375 285.941406 L 263.859375 255.765625 C 263.859375 255.503906 264 255.285156 264.234375 255.175781 C 267.105469 253.839844 269.921875 252.429688 272.683594 250.953125 C 273.121094 250.722656 273.644531 251.035156 273.644531 251.53125 L 273.644531 280.394531 C 273.644531 280.753906 273.9375 281.046875 274.296875 281.046875 L 308.394531 281.046875 C 308.683594 281.046875 308.929688 280.867188 309.015625 280.589844 C 312.960938 267.976562 329.089844 263.800781 338.625 273.335938 C 349.828125 284.539062 341.847656 303.765625 326.023438 303.765625 Z M 283.011719 348.972656 C 298.835938 348.972656 306.820312 329.746094 295.617188 318.542969 C 286.078125 309.007812 269.949219 313.183594 266.003906 325.796875 C 265.917969 326.074219 265.671875 326.253906 265.382812 326.253906 L 215.175781 326.253906 C 214.816406 326.253906 214.523438 325.964844 214.523438 325.605469 L 214.523438 270.671875 C 214.523438 270.273438 214.175781 269.96875 213.78125 270.027344 C 210.988281 270.421875 208.167969 270.753906 205.332031 271.023438 C 204.996094 271.058594 204.738281 271.335938 204.738281 271.675781 L 204.738281 331.148438 C 204.738281 333.847656 206.929688 336.039062 209.632812 336.039062 L 265.382812 336.039062 C 265.671875 336.039062 265.917969 336.222656 266.003906 336.496094 C 268.300781 343.804688 275.117188 348.972656 283.011719 348.972656 Z M 61.507812 298.542969 C 50.304688 309.746094 31.082031 301.765625 31.082031 285.941406 C 31.082031 270.117188 50.304688 262.132812 61.507812 273.335938 C 63.511719 275.339844 65.042969 277.820312 65.910156 280.59375 C 65.996094 280.867188 66.242188 281.046875 66.535156 281.046875 L 100.632812 281.046875 C 100.988281 281.046875 101.28125 280.753906 101.28125 280.394531 L 101.28125 251.53125 C 101.28125 251.035156 101.804688 250.722656 102.242188 250.953125 C 105.003906 252.429688 107.824219 253.839844 110.691406 255.175781 C 110.925781 255.285156 111.066406 255.503906 111.066406 255.765625 L 111.066406 285.941406 C 111.066406 288.640625 108.878906 290.832031 106.175781 290.832031 L 66.53125 290.832031 C 66.242188 290.832031 65.996094 291.011719 65.910156 291.289062 C 65.039062 294.058594 63.511719 296.539062 61.507812 298.542969 Z M 61.507812 298.542969 " fill-opacity="1" fill-rule="evenodd"/></svg>