<svg xmlns="http://www.w3.org/2000/svg" xmlns:xlink="http://www.w3.org/1999/xlink" width="500" zoomAndPan="magnify" viewBox="0 0 375 374.999991" height="500" preserveAspectRatio="xMidYMid meet" version="1.0"><defs><clipPath id="e5c674dbf7"><path d="M 29.199219 29.199219 L 345.699219 29.199219 L 345.699219 283 L 29.199219 283 Z M 29.199219 29.199219 " clip-rule="nonzero"/></clipPath><clipPath id="e78aa6a627"><path d="M 111 291 L 254 291 L 254 345.699219 L 111 345.699219 Z M 111 291 " clip-rule="nonzero"/></clipPath></defs><g clip-path="url(#e5c674dbf7)"><path fill="#a1ff2a" d="M 336.40625 238.453125 L 38.585938 238.453125 L 38.585938 50.953125 C 38.585938 44.039062 44.039062 38.585938 50.953125 38.585938 L 324.011719 38.585938 C 330.953125 38.585938 336.40625 44.039062 336.40625 50.953125 Z M 324.039062 29.199219 L 50.953125 29.199219 C 39.09375 29.199219 29.199219 39.09375 29.199219 50.953125 L 29.199219 260.714844 C 29.199219 272.574219 39.09375 282.46875 50.953125 282.46875 L 324.011719 282.46875 C 335.898438 282.46875 345.792969 272.574219 345.792969 260.714844 L 345.792969 50.953125 C 345.792969 39.09375 335.898438 29.199219 324.011719 29.199219 L 324.039062 29.199219 " fill-opacity="1" fill-rule="nonzero"/></g><g clip-path="url(#e78aa6a627)"><path fill="#a1ff2a" d="M 253.292969 330.445312 L 253.292969 340.847656 C 253.292969 343.320312 251.296875 345.792969 248.347656 345.792969 L 116.75 345.792969 C 114.277344 345.792969 111.804688 343.796875 111.804688 340.847656 L 111.804688 329.96875 C 111.804688 321.058594 118.242188 314.144531 126.644531 312.65625 L 141.007812 291.882812 L 224.597656 291.882812 L 238.960938 312.65625 C 246.855469 314.621094 253.292969 321.566406 253.292969 330.445312 " fill-opacity="1" fill-rule="nonzero"/></g><path fill="#a1ff2a" d="M 113.292969 101.910156 L 113.292969 60.371094 C 113.292969 57.894531 115.289062 55.421875 118.242188 55.421875 C 143.957031 55.421875 164.757812 76.191406 164.757812 101.910156 C 164.757812 104.382812 162.761719 106.859375 159.8125 106.859375 L 118.242188 106.859375 C 115.765625 106.859375 113.292969 104.890625 113.292969 101.910156 " fill-opacity="1" fill-rule="nonzero"/><path fill="#a1ff2a" d="M 145.449219 121.191406 C 145.449219 146.9375 124.675781 167.707031 98.960938 167.707031 C 73.242188 167.707031 52.441406 146.9375 52.441406 121.191406 C 52.441406 95.472656 73.242188 74.703125 98.960938 74.703125 C 101.433594 74.703125 103.90625 76.671875 103.90625 79.652344 L 103.90625 116.75 L 141.007812 116.75 C 143.480469 116.75 145.449219 118.746094 145.449219 121.191406 " fill-opacity="1" fill-rule="nonzero"/><path fill="#a1ff2a" d="M 223.136719 158.800781 L 223.136719 224.597656 C 223.136719 227.070312 221.140625 229.542969 218.1875 229.542969 L 197.390625 229.542969 C 194.914062 229.542969 192.441406 227.574219 192.441406 224.597656 L 192.441406 158.800781 C 192.441406 156.324219 194.4375 153.851562 197.390625 153.851562 L 218.667969 153.851562 C 221.140625 153.851562 223.136719 156.324219 223.136719 158.800781 " fill-opacity="1" fill-rule="nonzero"/><path fill="#a1ff2a" d="M 272.097656 192.441406 L 272.097656 224.597656 C 272.097656 227.070312 270.101562 229.542969 267.148438 229.542969 L 245.875 229.542969 C 243.398438 229.542969 240.925781 227.574219 240.925781 224.597656 L 240.925781 192.441406 C 240.925781 189.96875 242.921875 187.496094 245.875 187.496094 L 267.148438 187.496094 C 270.101562 187.496094 272.097656 189.96875 272.097656 192.441406 " fill-opacity="1" fill-rule="nonzero"/><path fill="#a1ff2a" d="M 174.144531 187.496094 L 174.144531 225.074219 C 174.144531 227.574219 172.148438 230.019531 169.199219 230.019531 L 147.921875 230.019531 C 145.449219 230.019531 142.976562 228.054688 142.976562 225.074219 L 142.976562 187.496094 C 142.976562 185.023438 144.96875 182.550781 147.921875 182.550781 L 169.199219 182.550781 C 172.148438 182.550781 174.144531 184.542969 174.144531 187.496094 " fill-opacity="1" fill-rule="nonzero"/><path fill="#a1ff2a" d="M 321.058594 135.046875 L 321.058594 224.597656 C 321.058594 227.070312 319.089844 229.542969 316.113281 229.542969 L 294.835938 229.542969 C 292.390625 229.542969 289.886719 227.574219 289.886719 224.597656 L 289.886719 135.046875 C 289.886719 132.574219 291.882812 130.101562 294.835938 130.101562 L 316.113281 130.101562 C 319.089844 130.609375 321.058594 132.574219 321.058594 135.046875 " fill-opacity="1" fill-rule="nonzero"/><path fill="#a1ff2a" d="M 269.625 150.394531 C 282.972656 166.726562 259.730469 188 244.890625 173.160156 C 240.421875 169.199219 238.960938 163.269531 240.421875 157.308594 C 240.421875 156.832031 240.421875 156.832031 240.925781 156.324219 L 218.667969 140.980469 C 212.734375 145.925781 203.320312 146.433594 196.882812 139.996094 L 175.636719 152.363281 C 178.109375 163.269531 170.183594 173.160156 159.304688 173.160156 C 149.917969 173.160156 142.46875 165.742188 142.46875 156.324219 C 142.46875 150.902344 144.96875 145.953125 148.90625 142.976562 C 153.375 139.996094 158.320312 138.535156 163.746094 139.996094 C 166.21875 140.5 168.691406 141.992188 170.6875 143.957031 L 191.9375 131.589844 C 191.457031 130.101562 191.457031 129.117188 191.457031 127.628906 C 191.457031 118.242188 198.878906 110.820312 208.292969 110.820312 C 219.171875 110.820312 227.574219 121.191406 224.597656 132.574219 L 224.597656 133.082031 L 246.855469 148.425781 C 251.296875 144.96875 257.257812 143.957031 262.710938 145.449219 L 293.851562 99.4375 C 291.378906 96.484375 289.886719 93 289.886719 89.066406 C 289.886719 83.613281 292.390625 79.171875 296.324219 75.714844 C 305.710938 68.265625 320.074219 73.214844 323.054688 85.101562 C 324.011719 90.050781 323.054688 95.472656 320.074219 99.4375 C 316.113281 104.382812 309.199219 107.363281 301.777344 104.890625 L 269.625 150.394531 " fill-opacity="1" fill-rule="nonzero"/></svg>