<svg xmlns="http://www.w3.org/2000/svg" xmlns:xlink="http://www.w3.org/1999/xlink" width="500" zoomAndPan="magnify" viewBox="0 0 375 374.999991" height="500" preserveAspectRatio="xMidYMid meet" version="1.0"><defs><clipPath id="d1e96d5526"><path d="M 155 162 L 343.109375 162 L 343.109375 337.5 L 155 337.5 Z M 155 162 " clip-rule="nonzero"/></clipPath><clipPath id="0def15da59"><path d="M 31.859375 37.5 L 319 37.5 L 319 337.5 L 31.859375 337.5 Z M 31.859375 37.5 " clip-rule="nonzero"/></clipPath></defs><path fill="#a1ff2a" d="M 54.789062 283.375 L 137.109375 283.375 L 137.109375 291.222656 L 54.789062 291.222656 Z M 54.789062 283.375 " fill-opacity="1" fill-rule="nonzero"/><path fill="#a1ff2a" d="M 54.789062 265.375 L 137.109375 265.375 L 137.109375 273.222656 L 54.789062 273.222656 Z M 54.789062 265.375 " fill-opacity="1" fill-rule="nonzero"/><path fill="#a1ff2a" d="M 54.789062 301.375 L 137.109375 301.375 L 137.109375 309.222656 L 54.789062 309.222656 Z M 54.789062 301.375 " fill-opacity="1" fill-rule="nonzero"/><path fill="#a1ff2a" d="M 53.511719 105.199219 L 61.359375 105.199219 L 61.359375 115.011719 L 53.511719 115.011719 Z M 53.511719 105.199219 " fill-opacity="1" fill-rule="nonzero"/><path fill="#a1ff2a" d="M 53.511719 124.820312 L 61.359375 124.820312 L 61.359375 134.632812 L 53.511719 134.632812 Z M 53.511719 124.820312 " fill-opacity="1" fill-rule="nonzero"/><path fill="#a1ff2a" d="M 61.609375 95.386719 L 61.609375 85.828125 L 53.511719 85.828125 L 53.511719 95.390625 L 61.359375 95.390625 Z M 61.609375 95.386719 " fill-opacity="1" fill-rule="nonzero"/><path fill="#a1ff2a" d="M 71.417969 85.828125 L 81.230469 85.828125 L 81.230469 93.675781 L 71.417969 93.675781 Z M 71.417969 85.828125 " fill-opacity="1" fill-rule="nonzero"/><path fill="#a1ff2a" d="M 91.039062 85.828125 L 100.851562 85.828125 L 100.851562 93.675781 L 91.039062 93.675781 Z M 91.039062 85.828125 " fill-opacity="1" fill-rule="nonzero"/><path fill="#a1ff2a" d="M 110.660156 85.828125 L 120.46875 85.828125 L 120.46875 93.675781 L 110.660156 93.675781 Z M 110.660156 85.828125 " fill-opacity="1" fill-rule="nonzero"/><path fill="#a1ff2a" d="M 130.28125 85.828125 L 140.089844 85.828125 L 140.089844 93.675781 L 130.28125 93.675781 Z M 130.28125 85.828125 " fill-opacity="1" fill-rule="nonzero"/><path fill="#a1ff2a" d="M 133.511719 188.449219 L 141.363281 188.449219 L 141.363281 198.257812 L 133.511719 198.257812 Z M 133.511719 188.449219 " fill-opacity="1" fill-rule="nonzero"/><path fill="#a1ff2a" d="M 54.785156 229.40625 L 64.59375 229.40625 L 64.59375 237.253906 L 54.785156 237.253906 Z M 54.785156 229.40625 " fill-opacity="1" fill-rule="nonzero"/><path fill="#a1ff2a" d="M 74.40625 229.40625 L 84.214844 229.40625 L 84.214844 237.253906 L 74.40625 237.253906 Z M 74.40625 229.40625 " fill-opacity="1" fill-rule="nonzero"/><path fill="#a1ff2a" d="M 133.511719 208.070312 L 141.363281 208.070312 L 141.363281 217.878906 L 133.511719 217.878906 Z M 133.511719 208.070312 " fill-opacity="1" fill-rule="nonzero"/><path fill="#a1ff2a" d="M 141.363281 227.691406 L 133.265625 227.691406 L 133.265625 237.253906 L 141.363281 237.253906 Z M 141.363281 227.691406 " fill-opacity="1" fill-rule="nonzero"/><path fill="#a1ff2a" d="M 113.644531 229.40625 L 123.457031 229.40625 L 123.457031 237.253906 L 113.644531 237.253906 Z M 113.644531 229.40625 " fill-opacity="1" fill-rule="nonzero"/><path fill="#a1ff2a" d="M 94.023438 229.40625 L 103.835938 229.40625 L 103.835938 237.253906 L 94.023438 237.253906 Z M 94.023438 229.40625 " fill-opacity="1" fill-rule="nonzero"/><g clip-path="url(#d1e96d5526)"><path fill="#a1ff2a" d="M 195.644531 274.375 L 195.644531 278.296875 C 195.644531 287.175781 188.519531 294.414062 179.691406 294.609375 C 170.890625 294.421875 163.738281 287.121094 163.738281 278.300781 L 163.738281 162.449219 L 155.890625 162.449219 L 155.890625 278.300781 C 155.890625 291.300781 166.378906 302.066406 179.332031 302.449219 L 179.332031 302.464844 C 179.4375 302.464844 179.542969 302.460938 179.648438 302.457031 C 179.78125 302.464844 179.917969 302.464844 180.054688 302.464844 L 257.542969 302.464844 L 257.542969 329.691406 L 198.148438 329.691406 L 198.148438 337.542969 L 265.390625 337.542969 L 265.390625 302.464844 L 318.84375 302.464844 C 332.167969 302.464844 343.003906 291.625 343.003906 278.300781 L 343.003906 274.375 Z M 318.84375 294.617188 L 197.132812 294.617188 C 200.238281 291.230469 202.398438 286.957031 203.171875 282.222656 L 334.679688 282.222656 C 332.917969 289.332031 326.488281 294.617188 318.84375 294.617188 Z M 318.84375 294.617188 " fill-opacity="1" fill-rule="nonzero"/></g><g clip-path="url(#0def15da59)"><path fill="#a1ff2a" d="M 39.765625 73.121094 L 257.542969 73.121094 L 257.542969 94.90625 L 155.886719 94.90625 L 155.886719 130.738281 L 163.738281 130.738281 L 163.738281 102.753906 L 311.066406 102.753906 L 311.066406 256.035156 L 318.914062 256.035156 L 318.914062 94.902344 L 265.390625 94.902344 L 265.390625 37.523438 L 31.917969 37.523438 L 31.917969 337.542969 L 184.886719 337.542969 L 184.886719 329.691406 L 39.765625 329.691406 Z M 241.179688 45.375 L 257.542969 45.375 L 257.542969 65.273438 L 241.179688 65.273438 Z M 217.484375 45.375 L 233.332031 45.375 L 233.332031 65.273438 L 217.484375 65.273438 Z M 39.765625 45.375 L 209.636719 45.375 L 209.636719 65.273438 L 39.765625 65.273438 Z M 39.765625 45.375 " fill-opacity="1" fill-rule="nonzero"/></g><path fill="#a1ff2a" d="M 234.601562 243.746094 C 263.796875 243.746094 287.546875 219.992188 287.546875 190.796875 L 287.546875 186.875 L 238.523438 186.875 L 238.523438 137.851562 L 234.601562 137.851562 C 205.40625 137.851562 181.652344 161.601562 181.652344 190.796875 C 181.652344 219.992188 205.40625 243.746094 234.601562 243.746094 Z M 279.53125 194.722656 C 278.226562 209.757812 269.511719 222.703125 257.070312 229.882812 L 240.746094 194.722656 Z M 249.957031 233.191406 C 245.160156 234.933594 239.992188 235.894531 234.601562 235.894531 C 224.375 235.894531 214.9375 232.472656 207.367188 226.714844 L 233.535156 197.820312 Z M 230.675781 145.867188 L 230.675781 189.285156 L 201.554688 221.441406 C 194.082031 213.390625 189.5 202.621094 189.5 190.796875 C 189.5 167.253906 207.636719 147.863281 230.675781 145.867188 Z M 230.675781 145.867188 " fill-opacity="1" fill-rule="nonzero"/><path fill="#a1ff2a" d="M 301.175781 177.433594 C 301.175781 148.238281 277.421875 124.484375 248.226562 124.484375 L 244.304688 124.484375 L 244.304688 181.355469 L 301.175781 181.355469 Z M 252.152344 173.507812 L 252.152344 132.5 C 273.894531 134.386719 291.273438 151.765625 293.15625 173.507812 Z M 252.152344 173.507812 " fill-opacity="1" fill-rule="nonzero"/><path fill="#a1ff2a" d="M 183.855469 136.371094 C 190.9375 136.371094 196.703125 130.605469 196.703125 123.523438 C 196.703125 116.4375 190.9375 110.675781 183.855469 110.675781 C 176.769531 110.675781 171.007812 116.4375 171.007812 123.523438 C 171.007812 125.335938 171.386719 127.058594 172.070312 128.625 L 144.710938 155.058594 C 142.597656 153.53125 140.011719 152.621094 137.210938 152.621094 C 133.859375 152.621094 130.816406 153.917969 128.527344 156.027344 L 108.34375 146.894531 C 108.628906 145.828125 108.796875 144.710938 108.796875 143.554688 C 108.796875 136.46875 103.035156 130.707031 95.949219 130.707031 C 88.867188 130.707031 83.101562 136.46875 83.101562 143.554688 C 83.101562 145.53125 83.5625 147.394531 84.363281 149.066406 L 62.265625 170.417969 C 60.773438 169.8125 59.144531 169.46875 57.4375 169.46875 C 50.351562 169.46875 44.589844 175.234375 44.589844 182.316406 C 44.589844 189.402344 50.355469 195.164062 57.4375 195.164062 C 64.523438 195.164062 70.285156 189.402344 70.285156 182.316406 C 70.285156 179.808594 69.550781 177.476562 68.304688 175.496094 L 89.734375 154.789062 C 91.578125 155.816406 93.695312 156.402344 95.949219 156.402344 C 99 156.402344 101.804688 155.328125 104.007812 153.546875 L 124.625 162.875 C 124.453125 163.714844 124.363281 164.582031 124.363281 165.46875 C 124.363281 172.554688 130.125 178.316406 137.210938 178.316406 C 144.292969 178.316406 150.058594 172.554688 150.058594 165.46875 C 150.058594 164.0625 149.820312 162.710938 149.402344 161.441406 L 177.257812 134.527344 C 179.1875 135.6875 181.441406 136.371094 183.855469 136.371094 Z M 183.855469 118.523438 C 186.609375 118.523438 188.851562 120.765625 188.851562 123.523438 C 188.851562 126.28125 186.609375 128.523438 183.855469 128.523438 C 181.097656 128.523438 178.855469 126.28125 178.855469 123.523438 C 178.855469 120.765625 181.097656 118.523438 183.855469 118.523438 Z M 57.4375 187.316406 C 54.679688 187.316406 52.4375 185.074219 52.4375 182.316406 C 52.4375 179.558594 54.679688 177.316406 57.4375 177.316406 C 60.195312 177.316406 62.4375 179.558594 62.4375 182.316406 C 62.4375 185.074219 60.195312 187.316406 57.4375 187.316406 Z M 95.949219 148.554688 C 93.191406 148.554688 90.949219 146.3125 90.949219 143.554688 C 90.949219 140.796875 93.191406 138.554688 95.949219 138.554688 C 98.707031 138.554688 100.949219 140.796875 100.949219 143.554688 C 100.949219 146.3125 98.707031 148.554688 95.949219 148.554688 Z M 137.210938 170.46875 C 134.453125 170.46875 132.210938 168.226562 132.210938 165.46875 C 132.210938 162.710938 134.453125 160.46875 137.210938 160.46875 C 139.96875 160.46875 142.210938 162.710938 142.210938 165.46875 C 142.210938 168.226562 139.964844 170.46875 137.210938 170.46875 Z M 137.210938 170.46875 " fill-opacity="1" fill-rule="nonzero"/></svg>